<svg xmlns="http://www.w3.org/2000/svg" viewBox="0 0 64 64" role="img" aria-label="Bible avec une croix">
  <rect width="64" height="64" rx="15" fill="#0a2e2e"/>
  <path d="M18 13h31a5 5 0 0 1 5 5v30a5 5 0 0 1-5 5H18a7 7 0 0 1-7-7V20a7 7 0 0 1 7-7Z" fill="#073537" opacity="0.5"/>
  <path d="M17 11h30a5 5 0 0 1 5 5v29a5 5 0 0 1-5 5H17a7 7 0 0 1-7-7V18a7 7 0 0 1 7-7Z" fill="#fff"/>
  <path d="M17 11h11v39H17a7 7 0 0 1-7-7V18a7 7 0 0 1 7-7Z" fill="#f7b955"/>
  <path d="M28 12v38" stroke="#0a2e2e" stroke-width="1.8" opacity="0.16"/>
  <path d="M19 23h15M19 31h10M19 39h14" stroke="#0a2e2e" stroke-width="3" stroke-linecap="round" opacity="0.22"/>
  <path d="M39 18h6v10h10v6h-10v15h-6V34H29v-6h10V18Z" fill="#0a2e2e"/>
  <path d="M17 50h30a5 5 0 0 0 5-5H18a6 6 0 0 1-6-6v4a7 7 0 0 0 5 7Z" fill="#d8e0e1"/>
</svg>
